<svg xmlns="http://www.w3.org/2000/svg" xmlns:xlink="http://www.w3.org/1999/xlink" width="256" zoomAndPan="magnify" viewBox="0 0 192 48" height="64" preserveAspectRatio="xMidYMid meet" version="1.0"><defs><g/><clipPath id="3269bd998a"><path d="M 1.960938 0 L 190.039062 0 L 190.039062 47.019531 L 1.960938 47.019531 Z M 1.960938 0 " clip-rule="nonzero"/></clipPath><clipPath id="c2e304c524"><path d="M 10.777344 -70.53125 L 181.222656 -70.53125 C 186.09375 -70.53125 190.039062 -66.582031 190.039062 -61.714844 L 190.039062 108.734375 C 190.039062 113.605469 186.09375 117.550781 181.222656 117.550781 L 10.777344 117.550781 C 5.90625 117.550781 1.960938 113.605469 1.960938 108.734375 L 1.960938 -61.714844 C 1.960938 -66.582031 5.90625 -70.53125 10.777344 -70.53125 Z M 10.777344 -70.53125 " clip-rule="nonzero"/></clipPath><clipPath id="26e5eeac5e"><path d="M 9.28125 8.898438 L 17.976562 8.898438 L 17.976562 17.59375 L 9.28125 17.59375 Z M 9.28125 8.898438 " clip-rule="nonzero"/></clipPath><clipPath id="63d93e0898"><path d="M 13.628906 8.898438 C 11.226562 8.898438 9.28125 10.84375 9.28125 13.246094 C 9.28125 15.648438 11.226562 17.59375 13.628906 17.59375 C 16.03125 17.59375 17.976562 15.648438 17.976562 13.246094 C 17.976562 10.84375 16.03125 8.898438 13.628906 8.898438 Z M 13.628906 8.898438 " clip-rule="nonzero"/></clipPath><clipPath id="ca221acf6f"><path d="M 0.28125 0.898438 L 8.976562 0.898438 L 8.976562 9.59375 L 0.28125 9.59375 Z M 0.28125 0.898438 " clip-rule="nonzero"/></clipPath><clipPath id="09466d3b61"><path d="M 4.628906 0.898438 C 2.226562 0.898438 0.28125 2.84375 0.28125 5.246094 C 0.28125 7.648438 2.226562 9.59375 4.628906 9.59375 C 7.03125 9.59375 8.976562 7.648438 8.976562 5.246094 C 8.976562 2.84375 7.03125 0.898438 4.628906 0.898438 Z M 4.628906 0.898438 " clip-rule="nonzero"/></clipPath><clipPath id="36595ee943"><rect x="0" width="9" y="0" height="10"/></clipPath><clipPath id="f522ca7fb4"><path d="M 9.28125 19.097656 L 17.976562 19.097656 L 17.976562 27.796875 L 9.28125 27.796875 Z M 9.28125 19.097656 " clip-rule="nonzero"/></clipPath><clipPath id="3feccc047a"><path d="M 13.628906 19.097656 C 11.226562 19.097656 9.28125 21.046875 9.28125 23.449219 C 9.28125 25.847656 11.226562 27.796875 13.628906 27.796875 C 16.03125 27.796875 17.976562 25.847656 17.976562 23.449219 C 17.976562 21.046875 16.03125 19.097656 13.628906 19.097656 Z M 13.628906 19.097656 " clip-rule="nonzero"/></clipPath><clipPath id="b8d3dcf86e"><path d="M 0.28125 0.0976562 L 8.976562 0.0976562 L 8.976562 8.796875 L 0.28125 8.796875 Z M 0.28125 0.0976562 " clip-rule="nonzero"/></clipPath><clipPath id="70347ebd92"><path d="M 4.628906 0.0976562 C 2.226562 0.0976562 0.28125 2.046875 0.28125 4.449219 C 0.28125 6.847656 2.226562 8.796875 4.628906 8.796875 C 7.03125 8.796875 8.976562 6.847656 8.976562 4.449219 C 8.976562 2.046875 7.03125 0.0976562 4.628906 0.0976562 Z M 4.628906 0.0976562 " clip-rule="nonzero"/></clipPath><clipPath id="45de78169f"><rect x="0" width="9" y="0" height="9"/></clipPath><clipPath id="4179f8c8d2"><path d="M 9.386719 29.535156 L 17.976562 29.535156 L 17.976562 38.125 L 9.386719 38.125 Z M 9.386719 29.535156 " clip-rule="nonzero"/></clipPath><clipPath id="d35a205765"><path d="M 13.683594 29.535156 C 11.3125 29.535156 9.386719 31.457031 9.386719 33.828125 C 9.386719 36.199219 11.3125 38.125 13.683594 38.125 C 16.054688 38.125 17.976562 36.199219 17.976562 33.828125 C 17.976562 31.457031 16.054688 29.535156 13.683594 29.535156 Z M 13.683594 29.535156 " clip-rule="nonzero"/></clipPath><clipPath id="3a478660df"><path d="M 0.386719 0.535156 L 8.976562 0.535156 L 8.976562 9.125 L 0.386719 9.125 Z M 0.386719 0.535156 " clip-rule="nonzero"/></clipPath><clipPath id="008d912f6f"><path d="M 4.683594 0.535156 C 2.3125 0.535156 0.386719 2.457031 0.386719 4.828125 C 0.386719 7.199219 2.3125 9.125 4.683594 9.125 C 7.054688 9.125 8.976562 7.199219 8.976562 4.828125 C 8.976562 2.457031 7.054688 0.535156 4.683594 0.535156 Z M 4.683594 0.535156 " clip-rule="nonzero"/></clipPath><clipPath id="70966b4004"><rect x="0" width="9" y="0" height="10"/></clipPath></defs><g clip-path="url(#3269bd998a)"><g clip-path="url(#c2e304c524)"><path fill="#003d5b" d="M 1.960938 -70.53125 L 190.039062 -70.53125 L 190.039062 117.550781 L 1.960938 117.550781 Z M 1.960938 -70.53125 " fill-opacity="1" fill-rule="nonzero"/></g></g><g clip-path="url(#26e5eeac5e)"><g clip-path="url(#63d93e0898)"><g transform="matrix(1, 0, 0, 1, 9, 8)"><g clip-path="url(#36595ee943)"><g clip-path="url(#ca221acf6f)"><g clip-path="url(#09466d3b61)"><path fill="#d1495b" d="M 0.28125 0.898438 L 8.976562 0.898438 L 8.976562 9.59375 L 0.28125 9.59375 Z M 0.28125 0.898438 " fill-opacity="1" fill-rule="nonzero"/></g></g></g></g></g></g><g fill="#ffffff" fill-opacity="1"><g transform="translate(21.295383, 33.155362)"><g><path d="M 13.875 -14.234375 C 13.519531 -14.421875 13.097656 -14.597656 12.609375 -14.765625 C 12.117188 -14.941406 11.46875 -15.03125 10.65625 -15.03125 C 9.601562 -15.03125 8.703125 -14.828125 7.953125 -14.421875 C 7.210938 -14.015625 6.617188 -13.472656 6.171875 -12.796875 C 5.722656 -12.128906 5.421875 -11.394531 5.265625 -10.59375 C 5.109375 -9.789062 5.109375 -8.984375 5.265625 -8.171875 C 5.421875 -7.367188 5.722656 -6.628906 6.171875 -5.953125 C 6.617188 -5.285156 7.210938 -4.75 7.953125 -4.34375 C 8.703125 -3.9375 9.601562 -3.734375 10.65625 -3.734375 C 11.46875 -3.734375 12.179688 -3.828125 12.796875 -4.015625 C 13.410156 -4.203125 13.890625 -4.382812 14.234375 -4.5625 L 14.71875 -0.71875 C 14.15625 -0.5 13.5 -0.316406 12.75 -0.171875 C 12.007812 -0.0234375 11.3125 0.046875 10.65625 0.046875 C 9.082031 0.046875 7.707031 -0.210938 6.53125 -0.734375 C 5.351562 -1.265625 4.367188 -1.976562 3.578125 -2.875 C 2.796875 -3.769531 2.210938 -4.773438 1.828125 -5.890625 C 1.441406 -7.003906 1.25 -8.15625 1.25 -9.34375 C 1.25 -10.539062 1.441406 -11.695312 1.828125 -12.8125 C 2.210938 -13.925781 2.796875 -14.929688 3.578125 -15.828125 C 4.367188 -16.734375 5.351562 -17.445312 6.53125 -17.96875 C 7.707031 -18.5 9.082031 -18.765625 10.65625 -18.765625 C 12 -18.765625 13.21875 -18.523438 14.3125 -18.046875 Z M 13.875 -14.234375 "/></g></g></g><g fill="#ffffff" fill-opacity="1"><g transform="translate(35.104345, 33.155362)"><g><path d="M 10.984375 0.265625 C 9.398438 0.265625 8.003906 0 6.796875 -0.53125 C 5.597656 -1.070312 4.601562 -1.796875 3.8125 -2.703125 C 3.019531 -3.609375 2.421875 -4.628906 2.015625 -5.765625 C 1.617188 -6.910156 1.421875 -8.082031 1.421875 -9.28125 C 1.421875 -10.488281 1.617188 -11.660156 2.015625 -12.796875 C 2.421875 -13.941406 3.019531 -14.96875 3.8125 -15.875 C 4.601562 -16.78125 5.597656 -17.5 6.796875 -18.03125 C 8.003906 -18.570312 9.398438 -18.84375 10.984375 -18.84375 C 12.578125 -18.84375 13.972656 -18.570312 15.171875 -18.03125 C 16.378906 -17.5 17.378906 -16.78125 18.171875 -15.875 C 18.960938 -14.96875 19.554688 -13.941406 19.953125 -12.796875 C 20.359375 -11.660156 20.5625 -10.488281 20.5625 -9.28125 C 20.5625 -8.082031 20.359375 -6.910156 19.953125 -5.765625 C 19.554688 -4.628906 18.960938 -3.609375 18.171875 -2.703125 C 17.378906 -1.796875 16.378906 -1.070312 15.171875 -0.53125 C 13.972656 0 12.578125 0.265625 10.984375 0.265625 Z M 10.984375 -3.578125 C 12.046875 -3.578125 12.957031 -3.785156 13.71875 -4.203125 C 14.476562 -4.617188 15.082031 -5.164062 15.53125 -5.84375 C 15.976562 -6.53125 16.28125 -7.28125 16.4375 -8.09375 C 16.59375 -8.90625 16.59375 -9.71875 16.4375 -10.53125 C 16.28125 -11.34375 15.976562 -12.085938 15.53125 -12.765625 C 15.082031 -13.453125 14.476562 -14 13.71875 -14.40625 C 12.957031 -14.820312 12.046875 -15.03125 10.984375 -15.03125 C 9.929688 -15.03125 9.023438 -14.820312 8.265625 -14.40625 C 7.503906 -14 6.898438 -13.453125 6.453125 -12.765625 C 6.003906 -12.085938 5.703125 -11.34375 5.546875 -10.53125 C 5.390625 -9.71875 5.390625 -8.90625 5.546875 -8.09375 C 5.703125 -7.28125 6.003906 -6.53125 6.453125 -5.84375 C 6.898438 -5.164062 7.503906 -4.617188 8.265625 -4.203125 C 9.023438 -3.785156 9.929688 -3.578125 10.984375 -3.578125 Z M 10.984375 -3.578125 "/></g></g></g><g fill="#ffffff" fill-opacity="1"><g transform="translate(55.26114, 33.155362)"><g><path d="M 10.578125 -10.6875 L 17.890625 -18.8125 L 19.046875 -18.8125 L 19.046875 0 L 15.296875 0 L 15.3125 -10.34375 L 10.578125 -5.359375 L 5.828125 -10.34375 L 5.828125 0 L 2.078125 0 L 2.078125 -18.8125 L 3.265625 -18.8125 Z M 10.578125 -10.6875 "/></g></g></g><g fill="#ffffff" fill-opacity="1"><g transform="translate(74.614733, 33.155362)"><g><path d="M 10.578125 -10.6875 L 17.890625 -18.8125 L 19.046875 -18.8125 L 19.046875 0 L 15.296875 0 L 15.3125 -10.34375 L 10.578125 -5.359375 L 5.828125 -10.34375 L 5.828125 0 L 2.078125 0 L 2.078125 -18.8125 L 3.265625 -18.8125 Z M 10.578125 -10.6875 "/></g></g></g><g fill="#ffffff" fill-opacity="1"><g transform="translate(93.968327, 33.155362)"><g><path d="M 15.375 -6.453125 C 15.375 -5.191406 15.128906 -4.109375 14.640625 -3.203125 C 14.160156 -2.304688 13.519531 -1.59375 12.71875 -1.0625 C 11.925781 -0.53125 11.054688 -0.175781 10.109375 0 C 9.160156 0.1875 8.207031 0.1875 7.25 0 C 6.289062 -0.175781 5.410156 -0.53125 4.609375 -1.0625 C 3.816406 -1.59375 3.175781 -2.304688 2.6875 -3.203125 C 2.207031 -4.109375 1.96875 -5.191406 1.96875 -6.453125 L 1.96875 -18.53125 L 5.671875 -18.53125 L 5.671875 -6.484375 C 5.671875 -5.703125 5.875 -5.078125 6.28125 -4.609375 C 6.6875 -4.148438 7.1875 -3.84375 7.78125 -3.6875 C 8.382812 -3.53125 8.984375 -3.53125 9.578125 -3.6875 C 10.171875 -3.84375 10.671875 -4.148438 11.078125 -4.609375 C 11.484375 -5.078125 11.6875 -5.703125 11.6875 -6.484375 L 11.6875 -18.53125 L 15.375 -18.53125 Z M 15.375 -6.453125 "/></g></g></g><g fill="#ffffff" fill-opacity="1"><g transform="translate(109.565045, 33.155362)"><g><path d="M 8.84375 0 L 5.125 0 L 5.125 -14.828125 L 0.515625 -14.828125 L 0.515625 -18.515625 L 13.453125 -18.515625 L 13.453125 -14.828125 L 8.84375 -14.828125 Z M 8.84375 0 "/></g></g></g><g fill="#ffffff" fill-opacity="1"><g transform="translate(121.948991, 33.155362)"><g><path d="M 11.671875 0 L 2.078125 0 L 2.078125 -18.53125 L 11.359375 -18.53125 L 11.359375 -14.828125 L 5.78125 -14.828125 L 5.78125 -11.125 L 10.65625 -11.125 L 10.65625 -7.40625 L 5.78125 -7.40625 L 5.78125 -3.703125 L 11.671875 -3.703125 Z M 11.671875 0 "/></g></g></g><g fill="#ffffff" fill-opacity="1"><g transform="translate(133.218833, 33.155362)"><g><path d="M 5.78125 0 L 2.078125 0 L 2.078125 -18.515625 L 9.359375 -18.515625 C 10.390625 -18.515625 11.269531 -18.304688 12 -17.890625 C 12.738281 -17.472656 13.320312 -16.925781 13.75 -16.25 C 14.1875 -15.570312 14.476562 -14.820312 14.625 -14 C 14.78125 -13.1875 14.78125 -12.375 14.625 -11.5625 C 14.476562 -10.75 14.1875 -10.003906 13.75 -9.328125 C 13.3125 -8.660156 12.722656 -8.117188 11.984375 -7.703125 C 11.253906 -7.285156 10.378906 -7.078125 9.359375 -7.078125 L 5.78125 -7.078125 Z M 5.78125 -10.6875 L 9.046875 -10.6875 C 9.546875 -10.6875 9.941406 -10.820312 10.234375 -11.09375 C 10.535156 -11.375 10.734375 -11.71875 10.828125 -12.125 C 10.929688 -12.539062 10.929688 -12.957031 10.828125 -13.375 C 10.734375 -13.789062 10.535156 -14.132812 10.234375 -14.40625 C 9.941406 -14.6875 9.546875 -14.828125 9.046875 -14.828125 L 5.78125 -14.828125 Z M 5.78125 -10.6875 "/></g></g></g><g fill="#ffffff" fill-opacity="1"><g transform="translate(147.053714, 33.155362)"><g><path d="M 11.296875 0 L 7.5625 -7.078125 L 5.78125 -7.078125 L 5.78125 0 L 2.078125 0 L 2.078125 -18.53125 L 9.390625 -18.53125 C 10.492188 -18.53125 11.425781 -18.300781 12.1875 -17.84375 C 12.957031 -17.382812 13.554688 -16.785156 13.984375 -16.046875 C 14.421875 -15.316406 14.691406 -14.523438 14.796875 -13.671875 C 14.898438 -12.816406 14.832031 -11.976562 14.59375 -11.15625 C 14.363281 -10.332031 13.96875 -9.601562 13.40625 -8.96875 C 12.851562 -8.34375 12.117188 -7.898438 11.203125 -7.640625 L 15.5 0 Z M 5.78125 -10.6875 L 9.046875 -10.6875 C 9.546875 -10.6875 9.945312 -10.820312 10.25 -11.09375 C 10.550781 -11.375 10.753906 -11.71875 10.859375 -12.125 C 10.960938 -12.539062 10.960938 -12.957031 10.859375 -13.375 C 10.753906 -13.789062 10.550781 -14.132812 10.25 -14.40625 C 9.945312 -14.6875 9.546875 -14.828125 9.046875 -14.828125 L 5.78125 -14.828125 Z M 5.78125 -10.6875 "/></g></g></g><g fill="#ffffff" fill-opacity="1"><g transform="translate(161.147681, 33.155362)"><g><path d="M 10.984375 0.265625 C 9.398438 0.265625 8.003906 0 6.796875 -0.53125 C 5.597656 -1.070312 4.601562 -1.796875 3.8125 -2.703125 C 3.019531 -3.609375 2.421875 -4.628906 2.015625 -5.765625 C 1.617188 -6.910156 1.421875 -8.082031 1.421875 -9.28125 C 1.421875 -10.488281 1.617188 -11.660156 2.015625 -12.796875 C 2.421875 -13.941406 3.019531 -14.96875 3.8125 -15.875 C 4.601562 -16.78125 5.597656 -17.5 6.796875 -18.03125 C 8.003906 -18.570312 9.398438 -18.84375 10.984375 -18.84375 C 12.578125 -18.84375 13.972656 -18.570312 15.171875 -18.03125 C 16.378906 -17.5 17.378906 -16.78125 18.171875 -15.875 C 18.960938 -14.96875 19.554688 -13.941406 19.953125 -12.796875 C 20.359375 -11.660156 20.5625 -10.488281 20.5625 -9.28125 C 20.5625 -8.082031 20.359375 -6.910156 19.953125 -5.765625 C 19.554688 -4.628906 18.960938 -3.609375 18.171875 -2.703125 C 17.378906 -1.796875 16.378906 -1.070312 15.171875 -0.53125 C 13.972656 0 12.578125 0.265625 10.984375 0.265625 Z M 10.984375 -3.578125 C 12.046875 -3.578125 12.957031 -3.785156 13.71875 -4.203125 C 14.476562 -4.617188 15.082031 -5.164062 15.53125 -5.84375 C 15.976562 -6.53125 16.28125 -7.28125 16.4375 -8.09375 C 16.59375 -8.90625 16.59375 -9.71875 16.4375 -10.53125 C 16.28125 -11.34375 15.976562 -12.085938 15.53125 -12.765625 C 15.082031 -13.453125 14.476562 -14 13.71875 -14.40625 C 12.957031 -14.820312 12.046875 -15.03125 10.984375 -15.03125 C 9.929688 -15.03125 9.023438 -14.820312 8.265625 -14.40625 C 7.503906 -14 6.898438 -13.453125 6.453125 -12.765625 C 6.003906 -12.085938 5.703125 -11.34375 5.546875 -10.53125 C 5.390625 -9.71875 5.390625 -8.90625 5.546875 -8.09375 C 5.703125 -7.28125 6.003906 -6.53125 6.453125 -5.84375 C 6.898438 -5.164062 7.503906 -4.617188 8.265625 -4.203125 C 9.023438 -3.785156 9.929688 -3.578125 10.984375 -3.578125 Z M 10.984375 -3.578125 "/></g></g></g><g clip-path="url(#f522ca7fb4)"><g clip-path="url(#3feccc047a)"><g transform="matrix(1, 0, 0, 1, 9, 19)"><g clip-path="url(#45de78169f)"><g clip-path="url(#b8d3dcf86e)"><g clip-path="url(#70347ebd92)"><path fill="#edae49" d="M 0.28125 0.0976562 L 8.976562 0.0976562 L 8.976562 8.796875 L 0.28125 8.796875 Z M 0.28125 0.0976562 " fill-opacity="1" fill-rule="nonzero"/></g></g></g></g></g></g><g clip-path="url(#4179f8c8d2)"><g clip-path="url(#d35a205765)"><g transform="matrix(1, 0, 0, 1, 9, 29)"><g clip-path="url(#70966b4004)"><g clip-path="url(#3a478660df)"><g clip-path="url(#008d912f6f)"><path fill="#00798c" d="M 0.386719 0.535156 L 8.976562 0.535156 L 8.976562 9.125 L 0.386719 9.125 Z M 0.386719 0.535156 " fill-opacity="1" fill-rule="nonzero"/></g></g></g></g></g></g></svg>