<svg xmlns="http://www.w3.org/2000/svg" xmlns:xlink="http://www.w3.org/1999/xlink" width="128" zoomAndPan="magnify" viewBox="0 0 96 95.999999" height="128" preserveAspectRatio="xMidYMid meet" version="1.0"><defs><g/><clipPath id="30dd25750a"><path d="M 4.5 0 L 91.5 0 C 93.984375 0 96 2.015625 96 4.5 L 96 91.5 C 96 93.984375 93.984375 96 91.5 96 L 4.5 96 C 2.015625 96 0 93.984375 0 91.5 L 0 4.5 C 0 2.015625 2.015625 0 4.5 0 Z M 4.5 0 " clip-rule="nonzero"/></clipPath><clipPath id="c492202bf9"><path d="M 0 0 L 96 0 L 96 96 L 0 96 Z M 0 0 " clip-rule="nonzero"/></clipPath><clipPath id="bdeb8210d6"><path d="M 4.5 0 L 91.5 0 C 93.984375 0 96 2.015625 96 4.5 L 96 91.5 C 96 93.984375 93.984375 96 91.5 96 L 4.5 96 C 2.015625 96 0 93.984375 0 91.5 L 0 4.5 C 0 2.015625 2.015625 0 4.5 0 Z M 4.5 0 " clip-rule="nonzero"/></clipPath><clipPath id="5485a11caa"><rect x="0" width="96" y="0" height="96"/></clipPath><clipPath id="e43fa07ddc"><path d="M 63.1875 18.269531 L 78.1875 18.269531 L 78.1875 33.269531 L 63.1875 33.269531 Z M 63.1875 18.269531 " clip-rule="nonzero"/></clipPath><clipPath id="85f45fa628"><path d="M 70.6875 18.269531 C 66.546875 18.269531 63.1875 21.625 63.1875 25.769531 C 63.1875 29.910156 66.546875 33.269531 70.6875 33.269531 C 74.828125 33.269531 78.1875 29.910156 78.1875 25.769531 C 78.1875 21.625 74.828125 18.269531 70.6875 18.269531 Z M 70.6875 18.269531 " clip-rule="nonzero"/></clipPath><clipPath id="5de79e5445"><path d="M 0.1875 0.269531 L 15.1875 0.269531 L 15.1875 15.269531 L 0.1875 15.269531 Z M 0.1875 0.269531 " clip-rule="nonzero"/></clipPath><clipPath id="0fa6e5d936"><path d="M 7.6875 0.269531 C 3.546875 0.269531 0.1875 3.625 0.1875 7.769531 C 0.1875 11.910156 3.546875 15.269531 7.6875 15.269531 C 11.828125 15.269531 15.1875 11.910156 15.1875 7.769531 C 15.1875 3.625 11.828125 0.269531 7.6875 0.269531 Z M 7.6875 0.269531 " clip-rule="nonzero"/></clipPath><clipPath id="887b77ea6d"><rect x="0" width="16" y="0" height="16"/></clipPath><clipPath id="9dad60abd2"><path d="M 63.1875 40.5 L 78.1875 40.5 L 78.1875 55.5 L 63.1875 55.5 Z M 63.1875 40.5 " clip-rule="nonzero"/></clipPath><clipPath id="c99958bf5d"><path d="M 70.6875 40.5 C 66.546875 40.5 63.1875 43.859375 63.1875 48 C 63.1875 52.140625 66.546875 55.5 70.6875 55.5 C 74.828125 55.5 78.1875 52.140625 78.1875 48 C 78.1875 43.859375 74.828125 40.5 70.6875 40.5 Z M 70.6875 40.5 " clip-rule="nonzero"/></clipPath><clipPath id="7bd2bc9dbe"><path d="M 0.1875 0.5 L 15.1875 0.5 L 15.1875 15.5 L 0.1875 15.5 Z M 0.1875 0.5 " clip-rule="nonzero"/></clipPath><clipPath id="2a04865314"><path d="M 7.6875 0.5 C 3.546875 0.5 0.1875 3.859375 0.1875 8 C 0.1875 12.140625 3.546875 15.5 7.6875 15.5 C 11.828125 15.5 15.1875 12.140625 15.1875 8 C 15.1875 3.859375 11.828125 0.5 7.6875 0.5 Z M 7.6875 0.5 " clip-rule="nonzero"/></clipPath><clipPath id="db21fbfb39"><rect x="0" width="16" y="0" height="16"/></clipPath><clipPath id="acb0a6229b"><path d="M 63.1875 63 L 78.1875 63 L 78.1875 78 L 63.1875 78 Z M 63.1875 63 " clip-rule="nonzero"/></clipPath><clipPath id="709619b5bb"><path d="M 70.6875 63 C 66.546875 63 63.1875 66.359375 63.1875 70.5 C 63.1875 74.640625 66.546875 78 70.6875 78 C 74.828125 78 78.1875 74.640625 78.1875 70.5 C 78.1875 66.359375 74.828125 63 70.6875 63 Z M 70.6875 63 " clip-rule="nonzero"/></clipPath><clipPath id="3030758812"><path d="M 0.1875 0 L 15.1875 0 L 15.1875 15 L 0.1875 15 Z M 0.1875 0 " clip-rule="nonzero"/></clipPath><clipPath id="6c3afc3eae"><path d="M 7.6875 0 C 3.546875 0 0.1875 3.359375 0.1875 7.5 C 0.1875 11.640625 3.546875 15 7.6875 15 C 11.828125 15 15.1875 11.640625 15.1875 7.5 C 15.1875 3.359375 11.828125 0 7.6875 0 Z M 7.6875 0 " clip-rule="nonzero"/></clipPath><clipPath id="96ea5e737e"><rect x="0" width="16" y="0" height="15"/></clipPath></defs><g clip-path="url(#30dd25750a)"><g transform="matrix(1, 0, 0, 1, 0, -0.000000000000008101)"><g clip-path="url(#5485a11caa)"><g clip-path="url(#c492202bf9)"><g clip-path="url(#bdeb8210d6)"><rect x="-21.12" width="138.24" fill="#003d5b" height="138.239999" y="-21.12" fill-opacity="1"/></g></g></g></g></g><g clip-path="url(#e43fa07ddc)"><g clip-path="url(#85f45fa628)"><g transform="matrix(1, 0, 0, 1, 63, 18)"><g clip-path="url(#887b77ea6d)"><g clip-path="url(#5de79e5445)"><g clip-path="url(#0fa6e5d936)"><path fill="#d1495b" d="M 0.1875 0.269531 L 15.1875 0.269531 L 15.1875 15.269531 L 0.1875 15.269531 Z M 0.1875 0.269531 " fill-opacity="1" fill-rule="nonzero"/></g></g></g></g></g></g><g fill="#ffffff" fill-opacity="1"><g transform="translate(7.289105, 77.876469)"><g><path d="M 44.9375 -46.109375 C 43.820312 -46.734375 42.460938 -47.320312 40.859375 -47.875 C 39.265625 -48.4375 37.15625 -48.71875 34.53125 -48.71875 C 31.113281 -48.71875 28.195312 -48.054688 25.78125 -46.734375 C 23.375 -45.421875 21.441406 -43.671875 19.984375 -41.484375 C 18.535156 -39.304688 17.554688 -36.914062 17.046875 -34.3125 C 16.546875 -31.707031 16.546875 -29.101562 17.046875 -26.5 C 17.554688 -23.894531 18.535156 -21.5 19.984375 -19.3125 C 21.441406 -17.132812 23.375 -15.382812 25.78125 -14.0625 C 28.195312 -12.75 31.113281 -12.09375 34.53125 -12.09375 C 37.15625 -12.09375 39.460938 -12.398438 41.453125 -13.015625 C 43.441406 -13.628906 44.992188 -14.21875 46.109375 -14.78125 L 47.71875 -2.359375 C 45.863281 -1.628906 43.734375 -1.023438 41.328125 -0.546875 C 38.921875 -0.0664062 36.65625 0.171875 34.53125 0.171875 C 29.425781 0.171875 24.96875 -0.679688 21.15625 -2.390625 C 17.351562 -4.097656 14.175781 -6.40625 11.625 -9.3125 C 9.082031 -12.226562 7.179688 -15.492188 5.921875 -19.109375 C 4.660156 -22.722656 4.03125 -26.460938 4.03125 -30.328125 C 4.03125 -34.191406 4.660156 -37.925781 5.921875 -41.53125 C 7.179688 -45.144531 9.082031 -48.40625 11.625 -51.3125 C 14.175781 -54.226562 17.351562 -56.539062 21.15625 -58.25 C 24.96875 -59.957031 29.425781 -60.8125 34.53125 -60.8125 C 38.894531 -60.8125 42.84375 -60.03125 46.375 -58.46875 Z M 44.9375 -46.109375 "/></g></g></g><g clip-path="url(#9dad60abd2)"><g clip-path="url(#c99958bf5d)"><g transform="matrix(1, 0, 0, 1, 63, 40)"><g clip-path="url(#db21fbfb39)"><g clip-path="url(#7bd2bc9dbe)"><g clip-path="url(#2a04865314)"><path fill="#edae49" d="M 0.1875 0.5 L 15.1875 0.5 L 15.1875 15.5 L 0.1875 15.5 Z M 0.1875 0.5 " fill-opacity="1" fill-rule="nonzero"/></g></g></g></g></g></g><g clip-path="url(#acb0a6229b)"><g clip-path="url(#709619b5bb)"><g transform="matrix(1, 0, 0, 1, 63, 63)"><g clip-path="url(#96ea5e737e)"><g clip-path="url(#3030758812)"><g clip-path="url(#6c3afc3eae)"><path fill="#00798c" d="M 0.1875 0 L 15.1875 0 L 15.1875 15 L 0.1875 15 Z M 0.1875 0 " fill-opacity="1" fill-rule="nonzero"/></g></g></g></g></g></g></svg>